<mxfile host="app.diagrams.net" modified="2023-12-06T05:48:34.970Z" agent="Mozilla/5.0 (Windows NT 10.0; Win64; x64; rv:121.0) Gecko/20100101 Firefox/121.0" etag="7KpSnPvjUDnUQGlMn_dq" version="22.1.5" type="github">
  <diagram name="Page-1" id="5mVD9fUOksgfMro6NuTg">
    <mxGraphModel dx="573" dy="731" grid="1" gridSize="10" guides="1" tooltips="1" connect="1" arrows="1" fold="1" page="1" pageScale="1" pageWidth="827" pageHeight="1169" math="0" shadow="0">
      <root>
        <mxCell id="0" />
        <mxCell id="1" parent="0" />
        <mxCell id="6m3MEE-ubBta423l80CB-133" value="" style="edgeStyle=orthogonalEdgeStyle;rounded=0;orthogonalLoop=1;jettySize=auto;html=1;" edge="1" parent="1" source="6m3MEE-ubBta423l80CB-120" target="6m3MEE-ubBta423l80CB-132">
          <mxGeometry relative="1" as="geometry" />
        </mxCell>
        <mxCell id="6m3MEE-ubBta423l80CB-139" style="edgeStyle=orthogonalEdgeStyle;rounded=0;orthogonalLoop=1;jettySize=auto;html=1;" edge="1" parent="1" source="6m3MEE-ubBta423l80CB-120" target="6m3MEE-ubBta423l80CB-138">
          <mxGeometry relative="1" as="geometry" />
        </mxCell>
        <mxCell id="6m3MEE-ubBta423l80CB-142" value="" style="edgeStyle=orthogonalEdgeStyle;rounded=0;orthogonalLoop=1;jettySize=auto;html=1;" edge="1" parent="1" source="6m3MEE-ubBta423l80CB-120" target="6m3MEE-ubBta423l80CB-141">
          <mxGeometry relative="1" as="geometry" />
        </mxCell>
        <mxCell id="6m3MEE-ubBta423l80CB-120" value="Пользователи" style="rounded=0;whiteSpace=wrap;html=1;" vertex="1" parent="1">
          <mxGeometry x="960" y="525" width="120" height="60" as="geometry" />
        </mxCell>
        <mxCell id="6m3MEE-ubBta423l80CB-148" style="edgeStyle=orthogonalEdgeStyle;rounded=0;orthogonalLoop=1;jettySize=auto;html=1;" edge="1" parent="1" source="6m3MEE-ubBta423l80CB-121" target="6m3MEE-ubBta423l80CB-147">
          <mxGeometry relative="1" as="geometry" />
        </mxCell>
        <mxCell id="6m3MEE-ubBta423l80CB-121" value="Альбомы" style="rounded=0;whiteSpace=wrap;html=1;" vertex="1" parent="1">
          <mxGeometry x="1260" y="525" width="120" height="60" as="geometry" />
        </mxCell>
        <mxCell id="6m3MEE-ubBta423l80CB-145" value="" style="edgeStyle=orthogonalEdgeStyle;rounded=0;orthogonalLoop=1;jettySize=auto;html=1;" edge="1" parent="1" source="6m3MEE-ubBta423l80CB-122" target="6m3MEE-ubBta423l80CB-144">
          <mxGeometry relative="1" as="geometry" />
        </mxCell>
        <mxCell id="6m3MEE-ubBta423l80CB-122" value="Чаты" style="rounded=0;whiteSpace=wrap;html=1;" vertex="1" parent="1">
          <mxGeometry x="960" y="260" width="120" height="60" as="geometry" />
        </mxCell>
        <mxCell id="6m3MEE-ubBta423l80CB-123" value="Комментарии" style="rounded=0;whiteSpace=wrap;html=1;" vertex="1" parent="1">
          <mxGeometry x="1690" y="360" width="120" height="60" as="geometry" />
        </mxCell>
        <mxCell id="6m3MEE-ubBta423l80CB-126" value="Друзья" style="rounded=0;whiteSpace=wrap;html=1;" vertex="1" parent="1">
          <mxGeometry x="960" y="730" width="120" height="60" as="geometry" />
        </mxCell>
        <mxCell id="6m3MEE-ubBta423l80CB-127" value="Медиа" style="rounded=0;whiteSpace=wrap;html=1;" vertex="1" parent="1">
          <mxGeometry x="1570" y="525" width="120" height="60" as="geometry" />
        </mxCell>
        <mxCell id="6m3MEE-ubBta423l80CB-128" value="Сообщения" style="rounded=0;whiteSpace=wrap;html=1;" vertex="1" parent="1">
          <mxGeometry x="1310" y="260" width="120" height="60" as="geometry" />
        </mxCell>
        <mxCell id="6m3MEE-ubBta423l80CB-150" style="edgeStyle=orthogonalEdgeStyle;rounded=0;orthogonalLoop=1;jettySize=auto;html=1;" edge="1" parent="1" source="6m3MEE-ubBta423l80CB-129" target="6m3MEE-ubBta423l80CB-147">
          <mxGeometry relative="1" as="geometry" />
        </mxCell>
        <mxCell id="6m3MEE-ubBta423l80CB-154" style="edgeStyle=orthogonalEdgeStyle;rounded=0;orthogonalLoop=1;jettySize=auto;html=1;" edge="1" parent="1" source="6m3MEE-ubBta423l80CB-129" target="6m3MEE-ubBta423l80CB-153">
          <mxGeometry relative="1" as="geometry" />
        </mxCell>
        <mxCell id="6m3MEE-ubBta423l80CB-129" value="Посты" style="rounded=0;whiteSpace=wrap;html=1;" vertex="1" parent="1">
          <mxGeometry x="1420" y="360" width="120" height="60" as="geometry" />
        </mxCell>
        <mxCell id="6m3MEE-ubBta423l80CB-130" value="Репосты" style="rounded=0;whiteSpace=wrap;html=1;" vertex="1" parent="1">
          <mxGeometry x="1500" y="840" width="120" height="60" as="geometry" />
        </mxCell>
        <mxCell id="6m3MEE-ubBta423l80CB-131" value="Трэнды" style="rounded=0;whiteSpace=wrap;html=1;" vertex="1" parent="1">
          <mxGeometry x="1290" y="830" width="120" height="60" as="geometry" />
        </mxCell>
        <mxCell id="6m3MEE-ubBta423l80CB-134" style="edgeStyle=orthogonalEdgeStyle;rounded=0;orthogonalLoop=1;jettySize=auto;html=1;" edge="1" parent="1" source="6m3MEE-ubBta423l80CB-132" target="6m3MEE-ubBta423l80CB-121">
          <mxGeometry relative="1" as="geometry" />
        </mxCell>
        <mxCell id="6m3MEE-ubBta423l80CB-132" value="Имеют" style="rhombus;whiteSpace=wrap;html=1;rounded=0;" vertex="1" parent="1">
          <mxGeometry x="1130" y="515" width="80" height="80" as="geometry" />
        </mxCell>
        <mxCell id="6m3MEE-ubBta423l80CB-140" style="edgeStyle=orthogonalEdgeStyle;rounded=0;orthogonalLoop=1;jettySize=auto;html=1;" edge="1" parent="1" source="6m3MEE-ubBta423l80CB-138" target="6m3MEE-ubBta423l80CB-126">
          <mxGeometry relative="1" as="geometry" />
        </mxCell>
        <mxCell id="6m3MEE-ubBta423l80CB-138" value="Имеют" style="rhombus;whiteSpace=wrap;html=1;rounded=0;" vertex="1" parent="1">
          <mxGeometry x="980" y="620" width="80" height="80" as="geometry" />
        </mxCell>
        <mxCell id="6m3MEE-ubBta423l80CB-143" style="edgeStyle=orthogonalEdgeStyle;rounded=0;orthogonalLoop=1;jettySize=auto;html=1;" edge="1" parent="1" source="6m3MEE-ubBta423l80CB-141" target="6m3MEE-ubBta423l80CB-122">
          <mxGeometry relative="1" as="geometry" />
        </mxCell>
        <mxCell id="6m3MEE-ubBta423l80CB-141" value="Состоят " style="rhombus;whiteSpace=wrap;html=1;rounded=0;" vertex="1" parent="1">
          <mxGeometry x="980" y="375" width="80" height="80" as="geometry" />
        </mxCell>
        <mxCell id="6m3MEE-ubBta423l80CB-146" style="edgeStyle=orthogonalEdgeStyle;rounded=0;orthogonalLoop=1;jettySize=auto;html=1;" edge="1" parent="1" source="6m3MEE-ubBta423l80CB-144" target="6m3MEE-ubBta423l80CB-128">
          <mxGeometry relative="1" as="geometry" />
        </mxCell>
        <mxCell id="6m3MEE-ubBta423l80CB-144" value="Содержат" style="rhombus;whiteSpace=wrap;html=1;rounded=0;" vertex="1" parent="1">
          <mxGeometry x="1180" y="250" width="80" height="80" as="geometry" />
        </mxCell>
        <mxCell id="6m3MEE-ubBta423l80CB-149" style="edgeStyle=orthogonalEdgeStyle;rounded=0;orthogonalLoop=1;jettySize=auto;html=1;" edge="1" parent="1" source="6m3MEE-ubBta423l80CB-147" target="6m3MEE-ubBta423l80CB-127">
          <mxGeometry relative="1" as="geometry" />
        </mxCell>
        <mxCell id="6m3MEE-ubBta423l80CB-147" value="Содержат" style="rhombus;whiteSpace=wrap;html=1;rounded=0;" vertex="1" parent="1">
          <mxGeometry x="1440" y="515" width="80" height="80" as="geometry" />
        </mxCell>
        <mxCell id="6m3MEE-ubBta423l80CB-155" style="edgeStyle=orthogonalEdgeStyle;rounded=0;orthogonalLoop=1;jettySize=auto;html=1;" edge="1" parent="1" source="6m3MEE-ubBta423l80CB-153" target="6m3MEE-ubBta423l80CB-123">
          <mxGeometry relative="1" as="geometry" />
        </mxCell>
        <mxCell id="6m3MEE-ubBta423l80CB-153" value="Содержат" style="rhombus;whiteSpace=wrap;html=1;rounded=0;" vertex="1" parent="1">
          <mxGeometry x="1574" y="350" width="80" height="80" as="geometry" />
        </mxCell>
      </root>
    </mxGraphModel>
  </diagram>
</mxfile>
